<svg xmlns="http://www.w3.org/2000/svg" viewBox="0 0 128 128">
  <defs>
    <linearGradient id="bg" x1="0%" y1="0%" x2="100%" y2="100%">
      <stop offset="0%" stop-color="#f8f8f5" />
      <stop offset="100%" stop-color="#e8e7e1" />
    </linearGradient>
  </defs>
  <rect width="128" height="128" rx="28" fill="url(#bg)" />
  <g fill="none" stroke="#141414" stroke-linecap="round" stroke-linejoin="round" stroke-width="6">
    <path d="M36 48c-8 0-14-6-14-14V26c0-8 6-14 14-14h6" />
    <path d="M36 48l-5-26" />
    <path d="M90 66l9-18" />
    <path d="M32 106h36c16 0 30-12 30-28V54c0-7 6-12 12-12h8" />
    <path d="M32 106l-10 18" />
    <path d="M64 106l-2 18" />
  </g>
  <g fill="#c2d92f" stroke="#141414" stroke-width="3" stroke-linejoin="round">
    <rect x="46" y="50" width="30" height="22" rx="4" />
    <rect x="64" y="38" width="30" height="22" rx="4" />
    <rect x="52" y="32" width="16" height="12" rx="3" />
  </g>
  <circle cx="40" cy="26" r="7" fill="#fbfbfb" stroke="#141414" stroke-width="3" />
  <circle cx="42" cy="26" r="2.2" fill="#141414" />
  <path d="M16 120h96" stroke="#c3c0b6" stroke-linecap="round" stroke-width="6" />
</svg>
