<svg width="512" height="512" viewBox="0 0 512 512" fill="none" xmlns="http://www.w3.org/2000/svg">
  <circle cx="256" cy="256" r="256" fill="#2E7D32"/>
  <!-- Legs -->
  <rect x="180" y="350" width="40" height="100" rx="20" fill="#F5F5DC"/>
  <rect x="290" y="350" width="40" height="100" rx="20" fill="#F5F5DC"/>
  <!-- Body -->
  <rect x="150" y="200" width="220" height="180" rx="40" fill="#F5F5DC"/>
  <!-- Neck -->
  <rect x="320" y="100" width="60" height="150" fill="#F5F5DC"/>
  <!-- Head -->
  <rect x="300" y="60" width="100" height="80" rx="30" fill="#F5F5DC"/>
  <!-- Ears -->
  <path d="M320 60 L310 20 L340 60 Z" fill="#F5F5DC"/>
  <path d="M380 60 L390 20 L360 60 Z" fill="#F5F5DC"/>
  <!-- Eye -->
  <circle cx="370" cy="90" r="5" fill="black"/>
  <!-- Snout -->
  <rect x="380" y="80" width="20" height="40" rx="10" fill="#E0E0C0"/>
  <!-- Cargo -->
  <rect x="180" y="150" width="60" height="60" rx="5" fill="#8D6E63" stroke="#5D4037" stroke-width="4"/>
  <rect x="250" y="150" width="60" height="60" rx="5" fill="#8D6E63" stroke="#5D4037" stroke-width="4"/>
  <rect x="215" y="100" width="60" height="60" rx="5" fill="#A1887F" stroke="#5D4037" stroke-width="4"/>
</svg>
